<svg xmlns="http://www.w3.org/2000/svg" xmlns:xlink="http://www.w3.org/1999/xlink" fill="none" version="1.1" width="116" height="40" viewBox="0 0 116 40"><defs><clipPath id="master_svg0_1_534"><rect x="0" y="0" width="116" height="40" rx="0"/></clipPath><linearGradient x1="0.9235692024230957" y1="0.06671349704265594" x2="0.5" y2="0.5" id="master_svg1_1_1701"><stop offset="0%" stop-color="#485FF3" stop-opacity="1"/><stop offset="100%" stop-color="#4EA9EE" stop-opacity="1"/></linearGradient><linearGradient x1="0.10287429392337799" y1="0.0541425459086895" x2="0.5044967532157898" y2="1" id="master_svg2_1_1691"><stop offset="0%" stop-color="#4EA9EE" stop-opacity="1"/><stop offset="100%" stop-color="#485FF3" stop-opacity="1"/></linearGradient><linearGradient x1="0.5" y1="0.22489537298679352" x2="0.9165725111961365" y2="0.8437840342521667" id="master_svg3_1_1698"><stop offset="0%" stop-color="#2F49CB" stop-opacity="1"/><stop offset="55.42759895324707%" stop-color="#4A7CF1" stop-opacity="1"/></linearGradient></defs><g clip-path="url(#master_svg0_1_534)"><g><g><g><path d="M29.211609350585938,8.31955C29.211609350585938,6.43632,27.142409350585936,5.28614,25.543009350585937,6.2803L10.354172350585937,15.7212C9.810690350585938,16.058999999999997,9.480209350585938,16.6536,9.480209350585938,17.2935L9.480209350585938,20.7437C9.480209350585938,21.4587,10.256361350585937,21.9038,10.873419350585937,21.5426L21.73520935058594,15.1846L21.73520935058594,31.0743C21.73520935058594,31.5855,22.149709350585937,31.9999,22.66090935058594,31.9999L27.360309350585936,31.9999C28.382809350585937,31.9999,29.211609350585938,31.1711,29.211609350585938,30.1487L29.211609350585938,8.31955Z" fill-rule="evenodd" fill="url(#master_svg1_1_1701)" fill-opacity="1"/></g><g><path d="M13.813,12.478496593017578L4.22948,6.596134593017578C2.37925,5.460466593017578,0,6.791777593017578,0,8.962736593017578L0,30.14877659301758C0,31.171176593017577,0.828827,32.00007659301758,1.85124,32.00007659301758L6.78196,32.00007659301758C7.29316,32.00007659301758,7.70757,31.585576593017578,7.70757,31.07437659301758L7.70757,15.419446593017579C7.70757,15.179966593017578,7.96853,15.031786593017578,8.17419,15.154486593017578L8.77679,15.513996593017579L13.813,12.478496593017578ZM14.9155,19.17657659301758L18.3313,21.214576593017576C18.9483,21.582676593017577,19.7312,21.13807659301758,19.7312,20.419676593017577L19.7312,16.357776593017576L14.9155,19.17657659301758Z" fill-rule="evenodd" fill="url(#master_svg2_1_1691)" fill-opacity="1"/></g><g><path d="M14.91552734375,19.176546015625L18.33134734375,21.214466015625C18.94832734375,21.582556015625002,19.73120734375,21.138006015625,19.73120734375,20.419566015625L19.73120734375,16.357666015625L14.91552734375,19.176546015625Z" fill-rule="evenodd" fill="url(#master_svg3_1_1698)" fill-opacity="1"/></g></g><g><path d="M75.26341591796876,19.00649Q75.77281591796876,19.53705,76.45891591796875,19.53705Q77.16571591796875,19.53705,77.68551591796876,19.00649Q78.20521591796876,18.475929999999998,78.20521591796876,17.76852Q78.20521591796876,17.06111,77.68551591796876,16.530557Q77.16571591796875,16,76.45891591796875,16Q75.75201591796875,16,75.25301591796875,16.520154Q74.75411591796875,17.04031,74.75411591796875,17.76852Q74.75411591796875,18.475929999999998,75.26341591796876,19.00649ZM52.19651591796875,19.25625Q52.70591591796875,19.7868,53.39201591796875,19.7868Q54.09881591796875,19.7868,54.618615917968754,19.25625Q55.13841591796875,18.72569,55.13841591796875,18.01828Q55.13841591796875,17.31087,54.618615917968754,16.780313Q54.09881591796875,16.249756,53.39201591796875,16.249756Q52.68511591796875,16.249756,52.18611591796875,16.76991Q51.68721591796875,17.29006,51.68721591796875,18.01828Q51.68721591796875,18.72569,52.19651591796875,19.25625ZM40.43558591796875,22.94575L38.90609591796875,25.24924L36.82222591796875,22.13776L36.82222591796875,31.700499999999998C36.82222591796875,31.8659,36.68820591796875,31.9999,36.52288591796875,31.9999L34.27331091796875,31.9999C34.10798891796875,31.9999,33.97396850596875,31.8659,33.97396850596875,31.700499999999998L33.97396850596875,17.06912C33.97396850596875,16.903795,34.10798891796875,16.769775,34.27331091796875,16.769775L36.20362591796875,16.769775C36.30427591796875,16.769775,36.39817591796875,16.820349,36.45356591796875,16.90438L40.43558591796875,22.94575ZM46.90071591796875,16.769775L48.72671591796875,16.769775C48.89201591796875,16.769775,49.02611591796875,16.903795,49.02611591796875,17.06912L49.02611591796875,31.700499999999998C49.02611591796875,31.8659,48.89201591796875,31.9999,48.72671591796875,31.9999L46.45641591796875,31.9999C46.29101591796875,31.9999,46.15701591796875,31.8659,46.15701591796875,31.700499999999998L46.15701591796875,22.179380000000002L42.37899591796875,27.8101C42.32340591796875,27.893,42.23019591796875,27.942700000000002,42.13042591796875,27.942700000000002L40.86979591796875,27.942700000000002C40.76992591796875,27.942700000000002,40.67664591796875,27.892899999999997,40.62107591796875,27.8099L40.03943591796875,26.941499999999998L41.55991591796875,24.65154L41.56239591796875,24.65531L41.99891591796875,23.990380000000002L42.66371591796875,22.989150000000002L42.65848591796875,22.985680000000002L46.65051591796875,16.90484C46.70581591796875,16.820544,46.79991591796875,16.769775,46.90071591796875,16.769775ZM94.20321591796875,31.700699999999998L94.20321591796875,27.1522L98.94341591796875,27.1522Q100.14921591796875,27.1522,100.84571591796875,26.9441Q101.54221591796875,26.7361,102.16591591796875,26.1951Q102.85201591796876,25.591720000000002,103.23661591796875,24.64504Q103.62121591796875,23.69836,103.62121591796875,22.63725Q103.62121591796875,21.36807,103.03911591796874,20.28615Q102.24901591796875,18.85053,100.87691591796874,18.39279Q100.06611591796874,18.12231,98.17421591796875,18.12231L91.25101591796874,18.12231L91.25101591796874,31.700699999999998C91.25101591796874,31.866,91.38501591796876,32,91.55041591796875,32L93.90391591796876,32C94.06921591796875,32,94.20321591796875,31.866,94.20321591796875,31.700699999999998ZM116.03291591796875,31.700699999999998L116.03291591796875,29.8234C116.03291591796875,29.658099999999997,115.89891591796875,29.5241,115.73361591796875,29.5241L111.79171591796874,29.5241Q110.02451591796876,29.5241,109.19291591796875,28.8583Q108.00791591796875,27.9012,108.00791591796875,24.8219Q108.00791591796875,22.53322,108.77711591796874,21.65936Q109.69191591796876,20.59825,111.66701591796875,20.59825L115.73361591796875,20.59825C115.89891591796875,20.59825,116.03291591796875,20.46423,116.03291591796875,20.2989L116.03291591796875,18.42166C116.03291591796875,18.25633,115.89891591796875,18.12231,115.73361591796875,18.12231L111.33431591796875,18.12231Q109.25531591796874,18.12231,107.93511591796874,18.70489Q106.61491591796874,19.28746,105.82491591796875,20.55663Q104.74381591796875,22.30435,104.74381591796875,25.09238Q104.74381591796875,27.4227,105.45071591796875,29.0039Q106.53181591796876,31.355,109.08901591796875,31.8544Q109.81661591796875,32,111.18881591796875,32L115.73361591796875,32C115.89891591796875,32,116.03291591796875,31.866,116.03291591796875,31.700699999999998ZM98.21571591796875,24.67625L94.20321591796875,24.67625L94.20321591796875,20.59825L98.27811591796875,20.59825Q99.04731591796875,20.59825,99.40081591796876,20.74389Q100.37791591796875,21.13921,100.37791591796875,22.53322Q100.37791591796875,23.8232,99.73341591796876,24.34336Q99.29681591796874,24.67625,98.21571591796875,24.67625ZM75.34451591796875,31.6878L77.63561591796875,31.6878C77.80101591796875,31.6878,77.93501591796874,31.553800000000003,77.93501591796874,31.3885L77.93501591796874,21.209600000000002C77.93501591796874,21.04427,77.80101591796875,20.910249999999998,77.63561591796875,20.910249999999998L75.34451591796875,20.910249999999998C75.17921591796875,20.910249999999998,75.04511591796876,21.04427,75.04511591796876,21.209600000000002L75.04511591796876,31.3885C75.04511591796876,31.553800000000003,75.17921591796875,31.6878,75.34451591796875,31.6878ZM58.09901591796875,32C57.933715917968755,32,57.79961591796875,31.866,57.79961591796875,31.7006L57.79961591796875,21.521729999999998C57.79961591796875,21.35641,57.933715917968755,21.22238,58.09901591796875,21.22239L60.14071591796875,21.22239C60.30601591796875,21.22239,60.44001591796875,21.35641,60.44001591796875,21.52174L60.44001591796875,22.80365Q61.50031591796875,20.951900000000002,63.516915917968745,20.951900000000002Q64.59801591796875,20.951900000000002,65.40891591796876,21.51367Q66.21971591796876,22.07544,66.63551591796875,23.17816Q67.15521591796875,22.03382,68.00761591796875,21.49286Q68.86001591796875,20.951900000000002,69.92031591796875,20.951900000000002Q71.47961591796874,20.951900000000002,72.45671591796875,22.12745Q73.43391591796875,23.303,73.43391591796875,25.50845L73.43391591796875,31.7006C73.43391591796875,31.866,73.29991591796875,32,73.13451591796874,32L70.64671591796875,32C70.62451591796875,32,70.60641591796875,31.9819,70.60641591796875,31.959600000000002L70.60641591796875,25.38807C70.60641591796875,24.394869999999997,69.80131591796875,23.58972,68.80811591796875,23.58972C67.81491591796875,23.58972,67.00971591796875,24.394869999999997,67.00971591796875,25.38807L67.00971591796875,31.959600000000002C67.00971591796875,31.9819,66.99161591796874,32,66.96941591796875,32L64.24341591796875,32C64.22111591796875,32,64.20301591796874,31.9819,64.20301591796874,31.959600000000002L64.20301591796874,25.377679999999998C64.20301591796874,24.39022,63.40251591796875,23.58972,62.41511591796875,23.58972C61.42761591796875,23.58972,60.62711591796875,24.39022,60.62711591796875,25.377679999999998L60.62711591796875,31.959600000000002C60.62711591796875,31.9819,60.60901591796875,32,60.58681591796875,32L58.09901591796875,32ZM52.277615917968745,31.9376L54.568715917968746,31.9376C54.73411591796875,31.9376,54.86811591796875,31.8036,54.86811591796875,31.6383L54.86811591796875,21.45935C54.86811591796875,21.29403,54.73411591796875,21.16001,54.568715917968746,21.16001L52.277615917968745,21.16001C52.11231591796875,21.16001,51.978215917968754,21.29403,51.978215917968754,21.45935L51.978215917968754,31.6383C51.978215917968754,31.8036,52.11231591796875,31.9376,52.277615917968745,31.9376ZM89.06801591796875,23.73193L89.06801591796875,22.16677C89.06801591796875,22.00145,88.93401591796875,21.86743,88.76861591796876,21.86743L85.26341591796876,21.86743Q83.87041591796876,21.86743,82.99721591796876,22.0963Q82.12411591796875,22.32517,81.50041591796875,22.86613Q79.94111591796874,24.19772,79.94111591796874,26.9025Q79.94111591796874,29.1496,81.25091591796874,30.606Q81.93691591796875,31.375799999999998,82.83091591796875,31.6879Q83.72491591796876,32,85.26341591796876,32L88.76861591796876,32C88.93401591796875,32,89.06801591796875,31.866,89.06801591796875,31.700699999999998L89.06801591796875,30.1355C89.06801591796875,29.9702,88.93401591796875,29.836199999999998,88.76861591796876,29.836199999999998L86.07421591796876,29.836199999999998Q85.20101591796876,29.836199999999998,84.71241591796874,29.7218Q84.22391591796875,29.607300000000002,83.80811591796875,29.316000000000003Q82.78931591796875,28.567,82.78931591796875,26.9441Q82.78931591796875,25.4877,83.41311591796875,24.78029Q84.05751591796874,24.03127,85.74151591796874,24.03127L88.76861591796876,24.03127C88.93401591796875,24.03127,89.06801591796875,23.89725,89.06801591796875,23.73193Z" fill-rule="evenodd" fill="#ffffff" fill-opacity="1"/></g></g></g></svg>